<?xml version="1.0" encoding="UTF-8"?>
<svg version="1.1" viewBox="0 0 600 600" xmlns="http://www.w3.org/2000/svg">
<g transform="matrix(.95173 0 0 .95116 13.901 12.169)" stroke-linecap="round" stroke-width="1.051">
<path d="m206.04-12.793c-121.38 0-220.65 99.363-220.65 220.78 0 121.42 99.27 220.78 220.65 220.78 121.38 0 220.65-99.363 220.65-220.78 0-121.42-99.27-220.78-220.65-220.78zm0 84.082c75.905 1e-6 136.57 60.689 136.57 136.7 0 76.013-60.661 136.7-136.57 136.7-75.905 0-136.57-60.689-136.57-136.7 1e-6 -76.013 60.663-136.7 136.57-136.7z" color="#000000" stroke-linejoin="round" style="-inkscape-stroke:none;paint-order:stroke fill markers"/>
<path d="m332.16 292.15a42.041 42.041 0 0 0-29.732 12.305 42.041 42.041 0 0 0-0.0176 59.455l241.64 241.79a42.041 42.041 0 0 0 59.455 0.0176 42.041 42.041 0 0 0 0.0195-59.455l-241.64-241.79a42.041 42.041 0 0 0-29.723-12.324z" color="#000000" style="-inkscape-stroke:none"/>
<path transform="scale(1,-1)" d="m300.48-223.75a10.51 10.51 0 0 0-10.512 10.51c0 27.822-12.933 54.034-35.004 70.949-22.071 16.915-50.727 22.58-77.566 15.334a10.51 10.51 0 0 0-12.887 7.4062 10.51 10.51 0 0 0 7.4082 12.887c33.141 8.9476 68.582 1.9411 95.832-18.943 27.25-20.884 43.238-53.291 43.238-87.633a10.51 10.51 0 0 0-10.51-10.51z" color="#000000" stroke-linejoin="round" style="-inkscape-stroke:none;paint-order:stroke fill markers"/>
</g>
</svg>
